<svg width="380" height="87" viewBox="0 0 380 87" fill="none" xmlns="http://www.w3.org/2000/svg">
<path d="M2.5025 37.4985C3.56417 37.4682 4.3225 37.2255 4.7775 36.7705C5.2325 36.3155 5.49033 35.7847 5.551 35.178C5.61167 34.541 5.642 33.449 5.642 31.902V12.246C5.642 10.972 5.6875 9.88 5.7785 8.97L2.5025 9.152V7.15H24.388L24.6155 15.1125H23.114C23.114 12.6252 22.568 10.9265 21.476 10.0165C20.4143 9.1065 18.9128 8.68183 16.9715 8.7425L13.0585 8.8335C11.9665 8.86383 11.1778 9.07616 10.6925 9.4705C10.2072 9.8345 9.90383 10.3653 9.7825 11.063C9.66117 11.7303 9.6005 12.792 9.6005 14.248V21.528L18.1545 21.5735L17.836 17.6605H19.838V27.2155H18.3365C18.3365 26.0932 18.2 25.2438 17.927 24.6675C17.654 24.0608 17.2293 23.6665 16.653 23.4845C16.107 23.2722 15.3335 23.166 14.3325 23.166L12.922 23.2115L9.6005 23.348V33.7675C9.6005 35.3448 9.555 36.5278 9.464 37.3165L18.1545 37.18C20.2778 37.1497 21.9007 36.6188 23.023 35.5875C24.1453 34.5258 24.7065 32.7058 24.7065 30.1275H26.2535L25.9805 39H2.5025V37.4985ZM39.6337 39.728C38.208 39.728 36.9037 39.5308 35.7207 39.1365C34.5377 38.7725 33.5215 38.3023 32.6722 37.726L32.8542 39.3185H30.9432L30.6702 31.4925H32.0807C32.1414 32.7362 32.475 33.8433 33.0817 34.814C33.7187 35.7847 34.5377 36.5582 35.5387 37.1345C36.57 37.6805 37.662 37.9535 38.8147 37.9535C40.119 37.9535 41.2717 37.6502 42.2727 37.0435C43.304 36.4065 43.8197 35.5117 43.8197 34.359C43.8197 33.5097 43.5619 32.7968 43.0462 32.2205C42.5609 31.6442 41.939 31.174 41.1807 30.81C40.4527 30.4157 39.4214 29.9607 38.0867 29.445C36.479 28.8383 35.1899 28.2772 34.2192 27.7615C33.2485 27.2155 32.4144 26.4875 31.7167 25.5775C31.019 24.6675 30.6702 23.5148 30.6702 22.1195C30.6702 21.1185 30.9129 20.1175 31.3982 19.1165C31.8835 18.1155 32.7025 17.2662 33.8552 16.5685C35.0079 15.8708 36.5397 15.522 38.4507 15.522C39.391 15.522 40.3465 15.6737 41.3172 15.977C42.3182 16.2803 43.2434 16.7808 44.0927 17.4785L44.0017 15.7495H45.9127V23.712H44.4567C44.3657 21.9527 43.8197 20.436 42.8187 19.162C41.848 17.8577 40.4679 17.2055 38.6782 17.2055C37.3132 17.2055 36.2212 17.5543 35.4022 18.252C34.6135 18.9193 34.2192 19.7232 34.2192 20.6635C34.2192 21.5432 34.477 22.2863 34.9927 22.893C35.5387 23.4997 36.206 24.0153 36.9947 24.44C37.7834 24.8647 38.845 25.3348 40.1797 25.8505C41.757 26.4875 43.031 27.079 44.0017 27.625C44.9724 28.171 45.7914 28.899 46.4587 29.809C47.1564 30.6887 47.5052 31.7655 47.5052 33.0395C47.5052 34.4955 47.126 35.724 46.3677 36.725C45.6397 37.726 44.669 38.4843 43.4557 39C42.2727 39.4853 40.9987 39.728 39.6337 39.728ZM62.4697 39.728C60.4071 39.728 58.5112 39.2578 56.7822 38.3175C55.0836 37.3772 53.7337 36.0273 52.7327 34.268C51.7317 32.5087 51.2312 30.4308 51.2312 28.0345C51.2312 25.9112 51.7317 23.894 52.7327 21.983C53.7641 20.0417 55.1746 18.4795 56.9642 17.2965C58.7842 16.1135 60.8317 15.522 63.1067 15.522C64.7447 15.522 66.2007 15.7798 67.4747 16.2955C68.7487 16.8112 69.7346 17.4937 70.4322 18.343C71.1602 19.1923 71.5242 20.1175 71.5242 21.1185C71.5242 21.8162 71.3271 22.3925 70.9327 22.8475C70.5384 23.3025 69.9924 23.53 69.2947 23.53C68.6274 23.53 68.1269 23.3177 67.7932 22.893C67.4596 22.438 67.2927 21.9678 67.2927 21.4825C67.2927 20.7242 67.5202 20.1175 67.9752 19.6625C67.6416 18.7222 66.9894 18.0852 66.0187 17.7515C65.0784 17.3875 64.1381 17.2055 63.1977 17.2055C61.8024 17.2055 60.5436 17.5847 59.4212 18.343C58.3292 19.1013 57.4647 20.2085 56.8277 21.6645C56.1907 23.1205 55.8722 24.8647 55.8722 26.897C55.8722 28.9293 56.1907 30.7342 56.8277 32.3115C57.4951 33.8888 58.4202 35.1325 59.6032 36.0425C60.7862 36.9222 62.1512 37.362 63.6982 37.362C65.0632 37.362 66.3979 36.998 67.7022 36.27C69.0369 35.5117 70.0834 34.5713 70.8417 33.449L72.0247 34.359C70.9024 36.1183 69.4464 37.453 67.6567 38.363C65.8974 39.273 64.1684 39.728 62.4697 39.728ZM81.8652 39.728C79.6508 39.728 77.9522 39.2275 76.7692 38.2265C75.6165 37.2255 75.0402 35.9212 75.0402 34.3135C75.0402 32.5542 75.7378 31.0678 77.1332 29.8545C78.5588 28.6412 80.3333 27.7463 82.4567 27.17C84.6103 26.5633 86.764 26.2752 88.9177 26.3055V23.4845C88.9177 21.5128 88.6295 19.981 88.0532 18.889C87.4768 17.7667 86.2483 17.2055 84.3677 17.2055C83.4273 17.2055 82.5325 17.4027 81.6832 17.797C80.8338 18.1913 80.212 18.7828 79.8177 19.5715C80.212 19.9962 80.4092 20.5725 80.4092 21.3005C80.4092 21.7555 80.2423 22.1953 79.9087 22.62C79.575 23.0143 79.0897 23.2115 78.4527 23.2115C77.8157 23.2115 77.3152 23.0143 76.9512 22.62C76.5872 22.1953 76.4052 21.6493 76.4052 20.982C76.4052 19.981 76.7843 19.071 77.5427 18.252C78.3313 17.4027 79.4082 16.7353 80.7732 16.25C82.1685 15.7647 83.7155 15.522 85.4142 15.522C87.9622 15.522 89.8428 16.2045 91.0562 17.5695C92.2695 18.9042 92.861 21.0275 92.8307 23.9395L92.7852 34.177C92.7852 35.1477 92.7245 36.179 92.6032 37.271L95.8337 37.089V39H89.3272C89.2362 38.545 89.13 37.6805 89.0087 36.4065C86.7943 38.6208 84.4132 39.728 81.8652 39.728ZM82.9117 37.1345C84.0643 37.1345 85.1108 36.9222 86.0512 36.4975C86.9915 36.0425 87.947 35.36 88.9177 34.45C88.8873 33.995 88.8722 33.2215 88.8722 32.1295L88.9177 27.8525C86.4303 27.9435 84.216 28.4592 82.2747 29.3995C80.3333 30.3095 79.3627 31.72 79.3627 33.631C79.3627 34.7533 79.6963 35.6178 80.3637 36.2245C81.031 36.8312 81.8803 37.1345 82.9117 37.1345ZM98.5466 49.2375C99.4263 49.2375 100.048 49.01 100.412 48.555C100.806 48.1303 101.034 47.5843 101.095 46.917C101.155 46.28 101.201 45.2032 101.231 43.6865L101.322 21.71C101.322 20.436 101.383 19.4502 101.504 18.7525L98.2736 18.9345V17.0235C100.063 17.0235 101.292 16.9325 101.959 16.7505C102.626 16.5382 103.172 16.2197 103.597 15.795H104.962C105.083 17.2813 105.144 18.1003 105.144 18.252C106.054 17.433 107.146 16.7808 108.42 16.2955C109.694 15.7798 110.953 15.522 112.197 15.522C113.986 15.522 115.639 15.9922 117.156 16.9325C118.673 17.8425 119.886 19.162 120.796 20.891C121.736 22.5897 122.207 24.5613 122.207 26.806C122.207 29.3237 121.676 31.5683 120.614 33.54C119.552 35.4813 118.127 36.998 116.337 38.09C114.578 39.182 112.667 39.728 110.604 39.728C108.511 39.728 106.691 39.2275 105.144 38.2265V45.7795C105.144 47.1445 105.083 48.1758 104.962 48.8735L107.829 48.737V50.6025H98.5466V49.2375ZM110.513 37.908C111.939 37.908 113.167 37.4682 114.199 36.5885C115.26 35.7088 116.079 34.4803 116.656 32.903C117.232 31.3257 117.52 29.536 117.52 27.534C117.52 24.804 116.929 22.4987 115.746 20.618C114.593 18.707 112.864 17.7515 110.559 17.7515C109.558 17.7515 108.587 17.9942 107.647 18.4795C106.706 18.9648 105.887 19.5715 105.19 20.2995C105.22 20.5118 105.235 21.437 105.235 23.075L105.19 36.1335C106.737 37.3165 108.511 37.908 110.513 37.908ZM137.116 39.728C135.023 39.728 133.127 39.2427 131.429 38.272C129.76 37.271 128.441 35.8605 127.47 34.0405C126.499 32.1902 126.014 30.0668 126.014 27.6705C126.014 25.5472 126.499 23.5603 127.47 21.71C128.441 19.8293 129.791 18.3278 131.52 17.2055C133.279 16.0832 135.266 15.522 137.48 15.522C139.209 15.522 140.771 15.9012 142.167 16.6595C143.562 17.4178 144.669 18.5553 145.488 20.072C146.307 21.5583 146.717 23.3935 146.717 25.5775L130.701 25.8505C130.67 29.4905 131.262 32.3267 132.475 34.359C133.719 36.3913 135.63 37.4075 138.208 37.4075C139.603 37.4075 141.029 37.0435 142.485 36.3155C143.971 35.5875 145.109 34.6927 145.898 33.631L146.99 34.541C145.837 36.3003 144.335 37.6047 142.485 38.454C140.665 39.3033 138.875 39.728 137.116 39.728ZM142.44 23.9395C142.44 22.1195 142.03 20.5573 141.211 19.253C140.392 17.9487 139.164 17.2965 137.526 17.2965C133.764 17.2965 131.535 19.5108 130.837 23.9395H142.44ZM154.315 39.728C153.587 39.728 152.965 39.455 152.449 38.909C151.934 38.3327 151.676 37.635 151.676 36.816C151.676 35.997 151.934 35.2993 152.449 34.723C152.995 34.1467 153.632 33.8585 154.36 33.8585C155.119 33.8585 155.74 34.1467 156.226 34.723C156.741 35.2993 156.999 35.997 156.999 36.816C156.999 37.635 156.726 38.3327 156.18 38.909C155.665 39.455 155.043 39.728 154.315 39.728Z" fill="white"/>
<path d="M165.503 38.6602C166.452 38.6602 167.285 38.401 168.003 37.8826C168.729 37.3562 169.195 36.6504 169.403 35.7651V33.552C169.363 33.552 169.12 33.5719 168.673 33.6118C168.234 33.6517 167.947 33.6756 167.812 33.6836C166.081 33.8351 164.873 34.1182 164.187 34.533C163.509 34.9477 163.17 35.6136 163.17 36.5308C163.17 37.2326 163.378 37.7629 163.792 38.1218C164.207 38.4807 164.777 38.6602 165.503 38.6602ZM169.845 40C169.726 39.4896 169.61 38.9393 169.499 38.3491C168.773 39.0749 168.091 39.5773 167.453 39.8564C166.815 40.1356 166.065 40.2751 165.204 40.2751C163.976 40.2751 162.987 39.9561 162.237 39.3181C161.495 38.6721 161.125 37.747 161.125 36.5427C161.125 35.2029 161.631 34.21 162.644 33.564C163.665 32.918 165.132 32.5152 167.046 32.3557C167.309 32.3318 167.704 32.2999 168.23 32.26C168.765 32.2122 169.164 32.1763 169.427 32.1523V30.9919C169.427 30.0668 169.211 29.3809 168.781 28.9343C168.35 28.4877 167.672 28.2644 166.747 28.2644C165.455 28.2644 164.151 28.5834 162.835 29.2214C162.795 29.1257 162.692 28.8506 162.524 28.396C162.357 27.9334 162.269 27.6942 162.261 27.6782C162.843 27.3512 163.533 27.092 164.331 26.9006C165.136 26.7013 165.954 26.6016 166.783 26.6016C168.418 26.6016 169.594 26.9604 170.312 27.6782C171.038 28.388 171.401 29.6003 171.401 31.3149V40H169.845ZM174.391 35.6216V26.8767H176.401V35.6455C176.401 36.2197 176.481 36.7062 176.64 37.105C176.808 37.5037 177.043 37.8148 177.346 38.0381C177.657 38.2534 178.004 38.4089 178.387 38.5046C178.778 38.6003 179.224 38.6482 179.727 38.6482C180.764 38.6482 181.569 38.4209 182.143 37.9663C182.726 37.5117 183.017 36.7381 183.017 35.6455V26.8767H185.026V35.6216C185.026 36.2915 184.931 36.8936 184.739 37.428C184.548 37.9623 184.289 38.4089 183.962 38.7678C183.643 39.1187 183.256 39.4098 182.801 39.6411C182.347 39.8724 181.864 40.0399 181.354 40.1436C180.851 40.2472 180.309 40.2991 179.727 40.2991C179.153 40.2991 178.61 40.2472 178.1 40.1436C177.589 40.0399 177.103 39.8724 176.64 39.6411C176.186 39.4019 175.791 39.1068 175.456 38.7559C175.129 38.397 174.87 37.9504 174.678 37.416C174.487 36.8817 174.391 36.2835 174.391 35.6216ZM192.192 40.2393C190.9 40.2393 189.983 39.9242 189.441 39.2942C188.898 38.6641 188.611 37.6473 188.579 36.2437V28.3601H186.629L186.713 27.0442L188.567 26.8767L189.249 23.874L190.565 23.8262V26.8767H194.214V28.3601H190.565V35.8848C190.565 36.8817 190.717 37.5835 191.02 37.9902C191.323 38.397 191.841 38.6003 192.575 38.6003C192.838 38.6003 193.408 38.5365 194.286 38.4089L194.369 39.988C193.42 40.1555 192.695 40.2393 192.192 40.2393ZM205.339 40V32.0686C205.339 30.7527 205.128 29.7957 204.705 29.1975C204.291 28.5994 203.561 28.3003 202.516 28.3003C201.511 28.3003 200.662 28.5515 199.968 29.054C199.282 29.5564 198.836 30.2064 198.628 31.0039C198.556 31.6021 198.521 32.268 198.521 33.0017V40H196.523V21.7805L198.521 21.6609V26.9963C198.521 27.4509 198.505 28.0132 198.473 28.6831C199.597 27.2954 201.089 26.6016 202.947 26.6016C205.874 26.6016 207.337 28.3202 207.337 31.7576V40H205.339ZM211.261 33.4683C211.261 35.0234 211.604 36.2716 212.29 37.2126C212.984 38.1458 213.993 38.6123 215.316 38.6123C216.624 38.6123 217.609 38.1458 218.271 37.2126C218.941 36.2795 219.276 35.0234 219.276 33.4443C219.276 31.8413 218.945 30.5812 218.283 29.6641C217.629 28.7389 216.628 28.2764 215.281 28.2764C213.973 28.2764 212.976 28.7469 212.29 29.688C211.604 30.6291 211.261 31.8892 211.261 33.4683ZM221.346 33.4324C221.346 35.4661 220.803 37.1169 219.719 38.385C218.634 39.6451 217.135 40.2751 215.221 40.2751C213.378 40.2751 211.911 39.6371 210.818 38.3611C209.734 37.085 209.191 35.4461 209.191 33.4443C209.191 31.4027 209.738 29.7518 210.83 28.4917C211.923 27.2316 213.422 26.6016 215.328 26.6016C217.203 26.6016 218.674 27.2356 219.743 28.5037C220.811 29.7638 221.346 31.4067 221.346 33.4324ZM230.067 26.7571C230.426 26.7571 230.753 26.781 231.048 26.8289L230.976 28.6711C230.609 28.6073 230.29 28.5754 230.019 28.5754C228.902 28.5754 227.993 28.9662 227.291 29.7478C226.597 30.5214 226.25 31.4824 226.25 32.6309V40H224.253C224.245 31.945 224.241 27.5706 224.241 26.8767H225.904L226.095 29.2334C226.55 28.4917 227.128 27.8936 227.83 27.439C228.531 26.9844 229.277 26.7571 230.067 26.7571Z" fill="white"/>
<path d="M1.44434 81V68.7231H2.88867V79.7217H8.29248L8.24268 81H1.44434ZM10.6831 76.4678C10.6831 77.5469 10.9211 78.4129 11.397 79.0659C11.8784 79.7134 12.5785 80.0371 13.4971 80.0371C14.4046 80.0371 15.0881 79.7134 15.5474 79.0659C16.0122 78.4185 16.2446 77.5469 16.2446 76.4512C16.2446 75.3389 16.015 74.4645 15.5557 73.8281C15.1019 73.1862 14.4074 72.8652 13.4722 72.8652C12.5646 72.8652 11.8729 73.1917 11.397 73.8447C10.9211 74.4977 10.6831 75.3721 10.6831 76.4678ZM17.6807 76.4429C17.6807 77.854 17.3044 78.9995 16.5518 79.8794C15.7992 80.7537 14.7588 81.1909 13.4307 81.1909C12.1523 81.1909 11.1341 80.7482 10.376 79.8628C9.62337 78.9774 9.24707 77.8402 9.24707 76.4512C9.24707 75.0345 9.62614 73.889 10.3843 73.0146C11.1424 72.1403 12.1828 71.7031 13.5054 71.7031C14.8058 71.7031 15.8268 72.1431 16.5684 73.0229C17.3099 73.8973 17.6807 75.0373 17.6807 76.4429ZM23.1841 79.813C23.6545 79.813 24.0667 79.73 24.4209 79.564C24.7751 79.3979 25.0518 79.1683 25.251 78.875C25.4502 78.5817 25.5968 78.2552 25.6909 77.8955C25.7905 77.5358 25.8403 77.1429 25.8403 76.7168V76.0444C25.8403 75.6017 25.7905 75.195 25.6909 74.8242C25.5913 74.4479 25.4364 74.1131 25.2261 73.8198C25.0213 73.521 24.7446 73.2886 24.396 73.1226C24.0529 72.9565 23.6517 72.8735 23.1924 72.8735C22.8105 72.8735 22.4619 72.9455 22.1465 73.0894C21.8366 73.2332 21.5793 73.4242 21.3745 73.6621C21.1753 73.8945 21.0037 74.1685 20.8599 74.4839C20.7215 74.7938 20.6219 75.1092 20.561 75.4302C20.5002 75.7511 20.4697 76.0749 20.4697 76.4014C20.4697 76.7223 20.5029 77.0405 20.5693 77.356C20.6357 77.6714 20.7409 77.9785 20.8848 78.2773C21.0286 78.5762 21.203 78.839 21.4077 79.0659C21.6125 79.2873 21.867 79.4671 22.1714 79.6055C22.4813 79.7438 22.8188 79.813 23.1841 79.813ZM21.0508 85.167L20.9263 83.9136H22.6196C23.09 83.9136 23.4995 83.8804 23.8481 83.814C24.1968 83.7476 24.4873 83.6369 24.7197 83.4819C24.9521 83.3325 25.1403 83.1637 25.2842 82.9756C25.4281 82.793 25.536 82.5522 25.6079 82.2534C25.6854 81.9601 25.7352 81.6668 25.7573 81.3735C25.785 81.0858 25.7988 80.7316 25.7988 80.311V79.5059C25.4668 79.9818 25.0822 80.3498 24.645 80.6099C24.2078 80.8644 23.6517 80.9917 22.9766 80.9917C22.4564 80.9917 21.9749 80.9032 21.5322 80.7261C21.0951 80.5435 20.7243 80.3027 20.4199 80.0039C20.1211 79.7051 19.8638 79.3592 19.6479 78.9663C19.4377 78.5734 19.2827 78.1667 19.1831 77.7461C19.089 77.3255 19.042 76.9022 19.042 76.4761C19.042 75.812 19.1222 75.1978 19.2827 74.6333C19.4487 74.0688 19.6922 73.5653 20.0132 73.1226C20.3341 72.6799 20.7547 72.334 21.2749 72.085C21.8006 71.8304 22.401 71.7031 23.0762 71.7031C23.6738 71.7031 24.194 71.8193 24.6367 72.0518C25.085 72.2786 25.4862 72.63 25.8403 73.106V71.894H27.1934V80.3442C27.1934 80.7316 27.1823 81.0692 27.1602 81.3569C27.1436 81.6502 27.0965 81.974 27.019 82.3281C26.9471 82.6823 26.8475 82.9867 26.7202 83.2412C26.5929 83.4958 26.4131 83.7503 26.1807 84.0049C25.9538 84.265 25.6799 84.4725 25.3589 84.6274C25.0435 84.7879 24.6506 84.918 24.1802 85.0176C23.7098 85.1172 23.1785 85.167 22.5864 85.167H21.0508ZM35.3945 71.894V81H34V71.894H35.3945ZM35.3945 68.582V70.2256H34V68.582H35.3945ZM38.0093 81V71.894H39.1714L39.3457 73.1973C39.7054 72.749 40.1536 72.3893 40.6904 72.1182C41.2327 71.8415 41.8166 71.7031 42.4419 71.7031C43.4933 71.7031 44.2708 71.9992 44.7744 72.5913C45.278 73.1779 45.5298 74.0827 45.5298 75.3057V81H44.1436C44.1436 77.3477 44.1408 75.3914 44.1353 75.1313C44.1131 74.3566 43.9554 73.7894 43.6621 73.4297C43.3743 73.07 42.8901 72.8901 42.2095 72.8901C41.4956 72.8901 40.9007 73.0617 40.4248 73.4048C39.9489 73.7479 39.639 74.1934 39.4951 74.7412C39.4398 75.112 39.4121 75.5381 39.4121 76.0195V81H38.0093ZM54.9927 81.166C54.0962 81.166 53.4598 80.9474 53.0835 80.5103C52.7072 80.0731 52.508 79.3675 52.4858 78.3936V72.9233H51.1328L51.1909 72.0103L52.4775 71.894L52.9507 69.8105L53.8638 69.7773V71.894H56.3955V72.9233H53.8638V78.1445C53.8638 78.8363 53.9689 79.3232 54.1792 79.6055C54.3895 79.8877 54.7492 80.0288 55.2583 80.0288C55.4409 80.0288 55.8366 79.9845 56.4453 79.896L56.5034 80.9917C55.8449 81.1079 55.3413 81.166 54.9927 81.166ZM58.894 76.4678C58.894 77.5469 59.132 78.4129 59.6079 79.0659C60.0894 79.7134 60.7894 80.0371 61.708 80.0371C62.6156 80.0371 63.299 79.7134 63.7583 79.0659C64.2231 78.4185 64.4556 77.5469 64.4556 76.4512C64.4556 75.3389 64.2259 74.4645 63.7666 73.8281C63.3128 73.1862 62.6183 72.8652 61.6831 72.8652C60.7756 72.8652 60.0838 73.1917 59.6079 73.8447C59.132 74.4977 58.894 75.3721 58.894 76.4678ZM65.8916 76.4429C65.8916 77.854 65.5153 78.9995 64.7627 79.8794C64.0101 80.7537 62.9697 81.1909 61.6416 81.1909C60.3633 81.1909 59.3451 80.7482 58.5869 79.8628C57.8343 78.9774 57.458 77.8402 57.458 76.4512C57.458 75.0345 57.8371 73.889 58.5952 73.0146C59.3534 72.1403 60.3937 71.7031 61.7163 71.7031C63.0168 71.7031 64.0378 72.1431 64.7793 73.0229C65.5208 73.8973 65.8916 75.0373 65.8916 76.4429ZM74.8232 81.1909C74.2035 81.1909 73.6307 81.1245 73.105 80.9917C72.5848 80.8589 72.1615 80.6873 71.835 80.4771L72.0093 79.3066C72.9334 79.7992 73.841 80.0454 74.7319 80.0454C76.0822 80.0454 76.7767 79.5695 76.8154 78.6177C76.8154 78.2137 76.6715 77.8955 76.3838 77.6631C76.096 77.4307 75.5316 77.1706 74.6904 76.8828L74.0015 76.6421C73.2046 76.3765 72.6346 76.0472 72.2915 75.6543C71.9539 75.2614 71.7824 74.7716 71.7769 74.1851C71.7769 73.4712 72.0618 72.8791 72.6318 72.4087C73.2074 71.9383 73.9932 71.7031 74.9893 71.7031C76.0186 71.7031 76.9565 71.9023 77.8032 72.3008L77.3965 73.3633C76.5387 73.0091 75.7363 72.832 74.9893 72.832C74.4082 72.832 73.9517 72.9482 73.6196 73.1807C73.2931 73.4076 73.1299 73.7285 73.1299 74.1436C73.1299 74.4977 73.2489 74.7689 73.4868 74.957C73.7248 75.1452 74.2007 75.361 74.9146 75.6045C75.0972 75.6709 75.3268 75.7484 75.6035 75.8369C76.5221 76.1357 77.1724 76.4899 77.5542 76.8994C77.936 77.3034 78.127 77.8512 78.127 78.543C78.1159 79.3841 77.8143 80.0371 77.2222 80.502C76.63 80.9613 75.8304 81.1909 74.8232 81.1909ZM82.9331 81.166C82.0366 81.166 81.4002 80.9474 81.0239 80.5103C80.6476 80.0731 80.4484 79.3675 80.4263 78.3936V72.9233H79.0732L79.1313 72.0103L80.418 71.894L80.8911 69.8105L81.8042 69.7773V71.894H84.3359V72.9233H81.8042V78.1445C81.8042 78.8363 81.9093 79.3232 82.1196 79.6055C82.3299 79.8877 82.6896 80.0288 83.1987 80.0288C83.3813 80.0288 83.777 79.9845 84.3857 79.896L84.4438 80.9917C83.7853 81.1079 83.2817 81.166 82.9331 81.166ZM88.5195 80.0703C89.1781 80.0703 89.7563 79.8905 90.2544 79.5308C90.758 79.1655 91.0817 78.6758 91.2256 78.0615V76.5259C91.1979 76.5259 91.0291 76.5397 90.7192 76.5674C90.4149 76.5951 90.2157 76.6117 90.1216 76.6172C88.9207 76.7223 88.0824 76.9188 87.6064 77.2065C87.1361 77.4943 86.9009 77.9564 86.9009 78.5928C86.9009 79.0798 87.0448 79.4478 87.3325 79.6968C87.6203 79.9458 88.016 80.0703 88.5195 80.0703ZM91.5327 81C91.4497 80.6458 91.3695 80.264 91.292 79.8545C90.7884 80.3581 90.3153 80.7067 89.8726 80.9004C89.4299 81.0941 88.9097 81.1909 88.312 81.1909C87.4598 81.1909 86.7736 80.9696 86.2534 80.5269C85.7388 80.0786 85.4814 79.4367 85.4814 78.6011C85.4814 77.6714 85.8328 76.9824 86.5356 76.5342C87.244 76.0859 88.2622 75.8065 89.5903 75.6958C89.7729 75.6792 90.0469 75.6571 90.4121 75.6294C90.7829 75.5962 91.0596 75.5713 91.2422 75.5547V74.7495C91.2422 74.1076 91.0928 73.6317 90.7939 73.3218C90.4951 73.0119 90.0247 72.8569 89.3828 72.8569C88.4863 72.8569 87.5815 73.0783 86.6685 73.521C86.6408 73.4546 86.5688 73.2637 86.4526 72.9482C86.3364 72.6273 86.2756 72.4613 86.27 72.4502C86.674 72.2233 87.1527 72.0435 87.7061 71.9106C88.265 71.7723 88.8322 71.7031 89.4077 71.7031C90.5422 71.7031 91.3584 71.9521 91.8564 72.4502C92.36 72.9427 92.6118 73.7839 92.6118 74.9736V81H91.5327ZM99.0864 71.811C99.3354 71.811 99.5623 71.8276 99.7671 71.8608L99.7173 73.1392C99.4627 73.0949 99.2414 73.0728 99.0532 73.0728C98.2785 73.0728 97.6476 73.3439 97.1606 73.8862C96.6792 74.423 96.4385 75.0898 96.4385 75.8867V81H95.0522C95.0467 75.4108 95.0439 72.3755 95.0439 71.894H96.1978L96.3306 73.5293C96.646 73.0146 97.0472 72.5996 97.5342 72.2842C98.0212 71.9688 98.5386 71.811 99.0864 71.811ZM104.1 81.166C103.204 81.166 102.567 80.9474 102.191 80.5103C101.815 80.0731 101.615 79.3675 101.593 78.3936V72.9233H100.24L100.298 72.0103L101.585 71.894L102.058 69.8105L102.971 69.7773V71.894H105.503V72.9233H102.971V78.1445C102.971 78.8363 103.076 79.3232 103.287 79.6055C103.497 79.8877 103.857 80.0288 104.366 80.0288C104.548 80.0288 104.944 79.9845 105.553 79.896L105.611 80.9917C104.952 81.1079 104.449 81.166 104.1 81.166ZM115.19 81.1909C113.851 81.1909 112.802 80.7565 112.044 79.8877C111.291 79.0189 110.915 77.8817 110.915 76.4761C110.921 75.0594 111.305 73.9111 112.069 73.0312C112.838 72.1458 113.889 71.7031 115.223 71.7031C115.694 71.7031 116.147 71.7612 116.584 71.8774C117.027 71.9937 117.376 72.1458 117.63 72.334L117.249 73.4131C116.601 73.0645 115.918 72.8901 115.198 72.8901C114.318 72.8901 113.621 73.2111 113.106 73.853C112.597 74.495 112.343 75.3721 112.343 76.4844C112.343 77.569 112.595 78.4295 113.098 79.0659C113.607 79.6968 114.31 80.0122 115.207 80.0122C115.92 80.0122 116.651 79.8185 117.398 79.4312L117.572 80.5352C116.969 80.9723 116.175 81.1909 115.19 81.1909ZM123.458 71.811C123.707 71.811 123.933 71.8276 124.138 71.8608L124.088 73.1392C123.834 73.0949 123.612 73.0728 123.424 73.0728C122.65 73.0728 122.019 73.3439 121.532 73.8862C121.05 74.423 120.81 75.0898 120.81 75.8867V81H119.423C119.418 75.4108 119.415 72.3755 119.415 71.894H120.569L120.702 73.5293C121.017 73.0146 121.418 72.5996 121.905 72.2842C122.392 71.9688 122.91 71.811 123.458 71.811ZM130.646 73.5791C130.242 73.0921 129.686 72.8486 128.978 72.8486C128.269 72.8486 127.691 73.1004 127.243 73.604C126.794 74.1021 126.532 74.7855 126.454 75.6543H131.26C131.26 74.7523 131.056 74.0605 130.646 73.5791ZM129.251 81.1909C127.929 81.1909 126.886 80.7703 126.122 79.9292C125.364 79.0881 124.985 77.937 124.985 76.4761C124.985 75.0649 125.353 73.9222 126.089 73.0479C126.825 72.168 127.793 71.7197 128.994 71.7031C130.123 71.7031 131.017 72.0905 131.675 72.8652C132.339 73.6344 132.671 74.6637 132.671 75.9531C132.671 76.0195 132.669 76.1413 132.663 76.3184C132.663 76.4954 132.663 76.6227 132.663 76.7002H126.413C126.429 77.735 126.695 78.543 127.209 79.124C127.73 79.6995 128.427 79.9873 129.301 79.9873C130.264 79.9873 131.23 79.7327 132.198 79.2236L132.414 80.3442C131.49 80.9087 130.436 81.1909 129.251 81.1909ZM137.129 80.0703C137.787 80.0703 138.366 79.8905 138.864 79.5308C139.367 79.1655 139.691 78.6758 139.835 78.0615V76.5259C139.807 76.5259 139.639 76.5397 139.329 76.5674C139.024 76.5951 138.825 76.6117 138.731 76.6172C137.53 76.7223 136.692 76.9188 136.216 77.2065C135.745 77.4943 135.51 77.9564 135.51 78.5928C135.51 79.0798 135.654 79.4478 135.942 79.6968C136.23 79.9458 136.625 80.0703 137.129 80.0703ZM140.142 81C140.059 80.6458 139.979 80.264 139.901 79.8545C139.398 80.3581 138.925 80.7067 138.482 80.9004C138.039 81.0941 137.519 81.1909 136.921 81.1909C136.069 81.1909 135.383 80.9696 134.863 80.5269C134.348 80.0786 134.091 79.4367 134.091 78.6011C134.091 77.6714 134.442 76.9824 135.145 76.5342C135.853 76.0859 136.872 75.8065 138.2 75.6958C138.382 75.6792 138.656 75.6571 139.021 75.6294C139.392 75.5962 139.669 75.5713 139.852 75.5547V74.7495C139.852 74.1076 139.702 73.6317 139.403 73.3218C139.104 73.0119 138.634 72.8569 137.992 72.8569C137.096 72.8569 136.191 73.0783 135.278 73.521C135.25 73.4546 135.178 73.2637 135.062 72.9482C134.946 72.6273 134.885 72.4613 134.879 72.4502C135.283 72.2233 135.762 72.0435 136.315 71.9106C136.874 71.7723 137.442 71.7031 138.017 71.7031C139.152 71.7031 139.968 71.9521 140.466 72.4502C140.969 72.9427 141.221 73.7839 141.221 74.9736V81H140.142ZM146.517 81.166C145.621 81.166 144.984 80.9474 144.608 80.5103C144.232 80.0731 144.032 79.3675 144.01 78.3936V72.9233H142.657L142.715 72.0103L144.002 71.894L144.475 69.8105L145.388 69.7773V71.894H147.92V72.9233H145.388V78.1445C145.388 78.8363 145.493 79.3232 145.704 79.6055C145.914 79.8877 146.274 80.0288 146.783 80.0288C146.965 80.0288 147.361 79.9845 147.97 79.896L148.028 80.9917C147.369 81.1079 146.866 81.166 146.517 81.166ZM151.141 71.894V81H149.746V71.894H151.141ZM151.141 68.582V70.2256H149.746V68.582H151.141ZM153.755 81V71.894H154.917L155.092 73.1973C155.451 72.749 155.9 72.3893 156.437 72.1182C156.979 71.8415 157.563 71.7031 158.188 71.7031C159.239 71.7031 160.017 71.9992 160.521 72.5913C161.024 73.1779 161.276 74.0827 161.276 75.3057V81H159.89C159.89 77.3477 159.887 75.3914 159.881 75.1313C159.859 74.3566 159.701 73.7894 159.408 73.4297C159.12 73.07 158.636 72.8901 157.956 72.8901C157.242 72.8901 156.647 73.0617 156.171 73.4048C155.695 73.7479 155.385 74.1934 155.241 74.7412C155.186 75.112 155.158 75.5381 155.158 76.0195V81H153.755ZM167.12 79.813C167.59 79.813 168.002 79.73 168.356 79.564C168.711 79.3979 168.987 79.1683 169.187 78.875C169.386 78.5817 169.532 78.2552 169.626 77.8955C169.726 77.5358 169.776 77.1429 169.776 76.7168V76.0444C169.776 75.6017 169.726 75.195 169.626 74.8242C169.527 74.4479 169.372 74.1131 169.162 73.8198C168.957 73.521 168.68 73.2886 168.332 73.1226C167.988 72.9565 167.587 72.8735 167.128 72.8735C166.746 72.8735 166.397 72.9455 166.082 73.0894C165.772 73.2332 165.515 73.4242 165.31 73.6621C165.111 73.8945 164.939 74.1685 164.795 74.4839C164.657 74.7938 164.557 75.1092 164.497 75.4302C164.436 75.7511 164.405 76.0749 164.405 76.4014C164.405 76.7223 164.438 77.0405 164.505 77.356C164.571 77.6714 164.676 77.9785 164.82 78.2773C164.964 78.5762 165.139 78.839 165.343 79.0659C165.548 79.2873 165.803 79.4671 166.107 79.6055C166.417 79.7438 166.754 79.813 167.12 79.813ZM164.986 85.167L164.862 83.9136H166.555C167.026 83.9136 167.435 83.8804 167.784 83.814C168.132 83.7476 168.423 83.6369 168.655 83.4819C168.888 83.3325 169.076 83.1637 169.22 82.9756C169.364 82.793 169.472 82.5522 169.543 82.2534C169.621 81.9601 169.671 81.6668 169.693 81.3735C169.721 81.0858 169.734 80.7316 169.734 80.311V79.5059C169.402 79.9818 169.018 80.3498 168.581 80.6099C168.143 80.8644 167.587 80.9917 166.912 80.9917C166.392 80.9917 165.91 80.9032 165.468 80.7261C165.031 80.5435 164.66 80.3027 164.355 80.0039C164.057 79.7051 163.799 79.3592 163.583 78.9663C163.373 78.5734 163.218 78.1667 163.119 77.7461C163.025 77.3255 162.978 76.9022 162.978 76.4761C162.978 75.812 163.058 75.1978 163.218 74.6333C163.384 74.0688 163.628 73.5653 163.949 73.1226C164.27 72.6799 164.69 72.334 165.21 72.085C165.736 71.8304 166.337 71.7031 167.012 71.7031C167.609 71.7031 168.13 71.8193 168.572 72.0518C169.021 72.2786 169.422 72.63 169.776 73.106V71.894H171.129V80.3442C171.129 80.7316 171.118 81.0692 171.096 81.3569C171.079 81.6502 171.032 81.974 170.955 82.3281C170.883 82.6823 170.783 82.9867 170.656 83.2412C170.528 83.4958 170.349 83.7503 170.116 84.0049C169.889 84.265 169.615 84.4725 169.294 84.6274C168.979 84.7879 168.586 84.918 168.116 85.0176C167.645 85.1172 167.114 85.167 166.522 85.167H164.986Z" fill="white"/>
</svg>
